o Cube.002_Cube.009
usemtl Material.008
v 0 -0.050000000745058074 -0.050000000745058046
v 0 -0.050000000745058046 0.050000000745058074
v 0 0.050000000745058074 0.050000000745058046
v 0 -0.050000000745058074 -0.050000000745058046
v 0 0.050000000745058074 0.050000000745058046
v 0 0.050000000745058046 -0.050000000745058074
v 0 0.050000000745058046 -0.050000000745058074
v 0 0.050000000745058074 0.050000000745058046
v 1 0.050000000745058074 0.050000000745058046
v 0 0.050000000745058046 -0.050000000745058074
v 1 0.050000000745058074 0.050000000745058046
v 1 0.050000000745058046 -0.050000000745058074
v 1 0.050000000745058046 -0.050000000745058074
v 1 0.050000000745058074 0.050000000745058046
v 1 -0.050000000745058046 0.050000000745058074
v 1 0.050000000745058046 -0.050000000745058074
v 1 -0.050000000745058046 0.050000000745058074
v 1 -0.050000000745058074 -0.050000000745058046
v 1 -0.050000000745058074 -0.050000000745058046
v 1 -0.050000000745058046 0.050000000745058074
v 0 -0.050000000745058046 0.050000000745058074
v 1 -0.050000000745058074 -0.050000000745058046
v 0 -0.050000000745058046 0.050000000745058074
v 0 -0.050000000745058074 -0.050000000745058046
v 0 0.050000000745058046 -0.050000000745058074
v 1 0.050000000745058046 -0.050000000745058074
v 1 -0.050000000745058074 -0.050000000745058046
v 0 0.050000000745058046 -0.050000000745058074
v 1 -0.050000000745058074 -0.050000000745058046
v 0 -0.050000000745058074 -0.050000000745058046
v 1 0.050000000745058074 0.050000000745058046
v 0 0.050000000745058074 0.050000000745058046
v 0 -0.050000000745058046 0.050000000745058074
v 1 0.050000000745058074 0.050000000745058046
v 0 -0.050000000745058046 0.050000000745058074
v 1 -0.050000000745058046 0.050000000745058074
v 0.05000000074505806 -1.1102230411687688e-17 -0.05000000074505806
v 0.05000000074505806 1.1102230411687688e-17 0.05000000074505806
v -0.05000000074505806 1.1102230411687688e-17 0.05000000074505806
v 0.05000000074505806 -1.1102230411687688e-17 -0.05000000074505806
v -0.05000000074505806 1.1102230411687688e-17 0.05000000074505806
v -0.05000000074505806 -1.1102230411687688e-17 -0.05000000074505806
v -0.05000000074505806 -1.1102230411687688e-17 -0.05000000074505806
v -0.05000000074505806 1.1102230411687688e-17 0.05000000074505806
v -0.05000000074505806 1 0.05000000074505784
v -0.05000000074505806 -1.1102230411687688e-17 -0.05000000074505806
v -0.05000000074505806 1 0.05000000074505784
v -0.05000000074505806 1 -0.05000000074505828
v -0.05000000074505806 1 -0.05000000074505828
v -0.05000000074505806 1 0.05000000074505784
v 0.05000000074505806 1 0.05000000074505784
v -0.05000000074505806 1 -0.05000000074505828
v 0.05000000074505806 1 0.05000000074505784
v 0.05000000074505806 1 -0.05000000074505828
v 0.05000000074505806 1 -0.05000000074505828
v 0.05000000074505806 1 0.05000000074505784
v 0.05000000074505806 1.1102230411687688e-17 0.05000000074505806
v 0.05000000074505806 1 -0.05000000074505828
v 0.05000000074505806 1.1102230411687688e-17 0.05000000074505806
v 0.05000000074505806 -1.1102230411687688e-17 -0.05000000074505806
v -0.05000000074505806 -1.1102230411687688e-17 -0.05000000074505806
v -0.05000000074505806 1 -0.05000000074505828
v 0.05000000074505806 1 -0.05000000074505828
v -0.05000000074505806 -1.1102230411687688e-17 -0.05000000074505806
v 0.05000000074505806 1 -0.05000000074505828
v 0.05000000074505806 -1.1102230411687688e-17 -0.05000000074505806
v -0.05000000074505806 1 0.05000000074505784
v -0.05000000074505806 1.1102230411687688e-17 0.05000000074505806
v 0.05000000074505806 1.1102230411687688e-17 0.05000000074505806
v -0.05000000074505806 1 0.05000000074505784
v 0.05000000074505806 1.1102230411687688e-17 0.05000000074505806
v 0.05000000074505806 1 0.05000000074505784
v 0.05000000074505806 0.05000000074505806 -1.1102230411687688e-17
v 0.05000000074505806 -0.05000000074505806 1.1102230411687688e-17
v -0.05000000074505806 -0.05000000074505806 1.1102230411687688e-17
v 0.05000000074505806 0.05000000074505806 -1.1102230411687688e-17
v -0.05000000074505806 -0.05000000074505806 1.1102230411687688e-17
v -0.05000000074505806 0.05000000074505806 -1.1102230411687688e-17
v -0.05000000074505806 0.05000000074505806 -1.1102230411687688e-17
v -0.05000000074505806 -0.05000000074505806 1.1102230411687688e-17
v -0.05000000074505806 -0.05000000074505784 1
v -0.05000000074505806 0.05000000074505806 -1.1102230411687688e-17
v -0.05000000074505806 -0.05000000074505784 1
v -0.05000000074505806 0.05000000074505828 1
v -0.05000000074505806 0.05000000074505828 1
v -0.05000000074505806 -0.05000000074505784 1
v 0.05000000074505806 -0.05000000074505784 1
v -0.05000000074505806 0.05000000074505828 1
v 0.05000000074505806 -0.05000000074505784 1
v 0.05000000074505806 0.05000000074505828 1
v 0.05000000074505806 0.05000000074505828 1
v 0.05000000074505806 -0.05000000074505784 1
v 0.05000000074505806 -0.05000000074505806 1.1102230411687688e-17
v 0.05000000074505806 0.05000000074505828 1
v 0.05000000074505806 -0.05000000074505806 1.1102230411687688e-17
v 0.05000000074505806 0.05000000074505806 -1.1102230411687688e-17
v -0.05000000074505806 0.05000000074505806 -1.1102230411687688e-17
v -0.05000000074505806 0.05000000074505828 1
v 0.05000000074505806 0.05000000074505828 1
v -0.05000000074505806 0.05000000074505806 -1.1102230411687688e-17
v 0.05000000074505806 0.05000000074505828 1
v 0.05000000074505806 0.05000000074505806 -1.1102230411687688e-17
v -0.05000000074505806 -0.05000000074505784 1
v -0.05000000074505806 -0.05000000074505806 1.1102230411687688e-17
v 0.05000000074505806 -0.05000000074505806 1.1102230411687688e-17
v -0.05000000074505806 -0.05000000074505784 1
v 0.05000000074505806 -0.05000000074505806 1.1102230411687688e-17
v 0.05000000074505806 -0.05000000074505784 1
vt 0.5996090173721313 0.5742189884185791
vt 0.8496090173721313 0.5742189884185791
vt 0.8496090173721313 0.8242189884185791
vt 0.5996090173721313 0.5742189884185791
vt 0.8496090173721313 0.8242189884185791
vt 0.5996090173721313 0.8242189884185791
vt 0.6933590173721313 0.5761719942092896
vt 0.9433590173721313 0.5761719942092896
vt 0.9433590173721313 0.8261719942092896
vt 0.6933590173721313 0.5761719942092896
vt 0.9433590173721313 0.8261719942092896
vt 0.6933590173721313 0.8261719942092896
vt 0.5722659826278687 0.5605469942092896
vt 0.8222659826278687 0.5605469942092896
vt 0.8222659826278687 0.8105469942092896
vt 0.5722659826278687 0.5605469942092896
vt 0.8222659826278687 0.8105469942092896
vt 0.5722659826278687 0.8105469942092896
vt 0.5917969942092896 0.7285159826278687
vt 0.8417969942092896 0.7285159826278687
vt 0.8417969942092896 0.9785159826278687
vt 0.5917969942092896 0.7285159826278687
vt 0.8417969942092896 0.9785159826278687
vt 0.5917969942092896 0.9785159826278687
vt 0.6660159826278687 0.6601560115814209
vt 0.9160159826278687 0.6601560115814209
vt 0.9160159826278687 0.9101560115814209
vt 0.6660159826278687 0.6601560115814209
vt 0.9160159826278687 0.9101560115814209
vt 0.6660159826278687 0.9101560115814209
vt 0.6699219942092896 0.5546879768371582
vt 0.9199219942092896 0.5546879768371582
vt 0.9199219942092896 0.8046879768371582
vt 0.6699219942092896 0.5546879768371582
vt 0.9199219942092896 0.8046879768371582
vt 0.6699219942092896 0.8046879768371582
vt 0.11132799834012985 0.1445309966802597
vt 0.36132800579071045 0.1445309966802597
vt 0.36132800579071045 0.3945310115814209
vt 0.11132799834012985 0.1445309966802597
vt 0.36132800579071045 0.3945310115814209
vt 0.11132799834012985 0.3945310115814209
vt 0.14257800579071045 0.1601559966802597
vt 0.39257800579071045 0.1601559966802597
vt 0.39257800579071045 0.4101560115814209
vt 0.14257800579071045 0.1601559966802597
vt 0.39257800579071045 0.4101560115814209
vt 0.14257800579071045 0.4101560115814209
vt 0.16992199420928955 0.21289099752902985
vt 0.41992199420928955 0.21289099752902985
vt 0.41992199420928955 0.46289101243019104
vt 0.16992199420928955 0.21289099752902985
vt 0.41992199420928955 0.46289101243019104
vt 0.16992199420928955 0.46289101243019104
vt 0.0820309966802597 0.1679690033197403
vt 0.3320310115814209 0.1679690033197403
vt 0.3320310115814209 0.4179689884185791
vt 0.0820309966802597 0.1679690033197403
vt 0.3320310115814209 0.4179689884185791
vt 0.0820309966802597 0.4179689884185791
vt 0.16210900247097015 0.19726599752902985
vt 0.41210898756980896 0.19726599752902985
vt 0.41210898756980896 0.44726601243019104
vt 0.16210900247097015 0.19726599752902985
vt 0.41210898756980896 0.44726601243019104
vt 0.16210900247097015 0.44726601243019104
vt 0.1601559966802597 0.2148440033197403
vt 0.4101560115814209 0.2148440033197403
vt 0.4101560115814209 0.4648439884185791
vt 0.1601559966802597 0.2148440033197403
vt 0.4101560115814209 0.4648439884185791
vt 0.1601559966802597 0.4648439884185791
vt 0.1601559966802597 0.6425780057907104
vt 0.4101560115814209 0.6425780057907104
vt 0.4101560115814209 0.8925780057907104
vt 0.1601559966802597 0.6425780057907104
vt 0.4101560115814209 0.8925780057907104
vt 0.1601559966802597 0.8925780057907104
vt 0.1601559966802597 0.5214840173721313
vt 0.4101560115814209 0.5214840173721313
vt 0.4101560115814209 0.7714840173721313
vt 0.1601559966802597 0.5214840173721313
vt 0.4101560115814209 0.7714840173721313
vt 0.1601559966802597 0.7714840173721313
vt 0.18164099752902985 0.5214840173721313
vt 0.43164101243019104 0.5214840173721313
vt 0.43164101243019104 0.7714840173721313
vt 0.18164099752902985 0.5214840173721313
vt 0.43164101243019104 0.7714840173721313
vt 0.18164099752902985 0.7714840173721313
vt 0.1289059966802597 0.5585939884185791
vt 0.3789060115814209 0.5585939884185791
vt 0.3789060115814209 0.8085939884185791
vt 0.1289059966802597 0.5585939884185791
vt 0.3789060115814209 0.8085939884185791
vt 0.1289059966802597 0.8085939884185791
vt 0.17382800579071045 0.6132810115814209
vt 0.42382800579071045 0.6132810115814209
vt 0.42382800579071045 0.8632810115814209
vt 0.17382800579071045 0.6132810115814209
vt 0.42382800579071045 0.8632810115814209
vt 0.17382800579071045 0.8632810115814209
vt 0.16210900247097015 0.6640620231628418
vt 0.41210898756980896 0.6640620231628418
vt 0.41210898756980896 0.9140620231628418
vt 0.16210900247097015 0.6640620231628418
vt 0.41210898756980896 0.9140620231628418
vt 0.16210900247097015 0.9140620231628418
vn -1 0 0
vn -1 0 0
vn -1 0 0
vn -1 0 0
vn -1 0 0
vn -1 0 0
vn 0 1 -2.220446049250313e-16
vn 0 1 -2.220446049250313e-16
vn 0 1 -2.220446049250313e-16
vn 0 1 -2.220446049250313e-16
vn 0 1 -2.220446049250313e-16
vn 0 1 -2.220446049250313e-16
vn 1 0 0
vn 1 0 0
vn 1 0 0
vn 1 0 0
vn 1 0 0
vn 1 0 0
vn 0 -1 2.220446049250313e-16
vn 0 -1 2.220446049250313e-16
vn 0 -1 2.220446049250313e-16
vn 0 -1 2.220446049250313e-16
vn 0 -1 2.220446049250313e-16
vn 0 -1 2.220446049250313e-16
vn 0 -2.220446049250313e-16 -1
vn 0 -2.220446049250313e-16 -1
vn 0 -2.220446049250313e-16 -1
vn 0 -2.220446049250313e-16 -1
vn 0 -2.220446049250313e-16 -1
vn 0 -2.220446049250313e-16 -1
vn 0 2.220446049250313e-16 1
vn 0 2.220446049250313e-16 1
vn 0 2.220446049250313e-16 1
vn 0 2.220446049250313e-16 1
vn 0 2.220446049250313e-16 1
vn 0 2.220446049250313e-16 1
vn 0 -1 2.220446049250313e-16
vn 0 -1 2.220446049250313e-16
vn 0 -1 2.220446049250313e-16
vn 0 -1 2.220446049250313e-16
vn 0 -1 2.220446049250313e-16
vn 0 -1 2.220446049250313e-16
vn -1 0 0
vn -1 0 0
vn -1 0 0
vn -1 0 0
vn -1 0 0
vn -1 0 0
vn 0 1 -2.220446049250313e-16
vn 0 1 -2.220446049250313e-16
vn 0 1 -2.220446049250313e-16
vn 0 1 -2.220446049250313e-16
vn 0 1 -2.220446049250313e-16
vn 0 1 -2.220446049250313e-16
vn 1 0 0
vn 1 0 0
vn 1 0 0
vn 1 0 0
vn 1 0 0
vn 1 0 0
vn 0 -2.220446049250313e-16 -1
vn 0 -2.220446049250313e-16 -1
vn 0 -2.220446049250313e-16 -1
vn 0 -2.220446049250313e-16 -1
vn 0 -2.220446049250313e-16 -1
vn 0 -2.220446049250313e-16 -1
vn 0 2.220446049250313e-16 1
vn 0 2.220446049250313e-16 1
vn 0 2.220446049250313e-16 1
vn 0 2.220446049250313e-16 1
vn 0 2.220446049250313e-16 1
vn 0 2.220446049250313e-16 1
vn 0 -2.220446049250313e-16 -1
vn 0 -2.220446049250313e-16 -1
vn 0 -2.220446049250313e-16 -1
vn 0 -2.220446049250313e-16 -1
vn 0 -2.220446049250313e-16 -1
vn 0 -2.220446049250313e-16 -1
vn -1 0 0
vn -1 0 0
vn -1 0 0
vn -1 0 0
vn -1 0 0
vn -1 0 0
vn 0 2.220446049250313e-16 1
vn 0 2.220446049250313e-16 1
vn 0 2.220446049250313e-16 1
vn 0 2.220446049250313e-16 1
vn 0 2.220446049250313e-16 1
vn 0 2.220446049250313e-16 1
vn 1 0 0
vn 1 0 0
vn 1 0 0
vn 1 0 0
vn 1 0 0
vn 1 0 0
vn 0 1 -2.220446049250313e-16
vn 0 1 -2.220446049250313e-16
vn 0 1 -2.220446049250313e-16
vn 0 1 -2.220446049250313e-16
vn 0 1 -2.220446049250313e-16
vn 0 1 -2.220446049250313e-16
vn 0 -1 2.220446049250313e-16
vn 0 -1 2.220446049250313e-16
vn 0 -1 2.220446049250313e-16
vn 0 -1 2.220446049250313e-16
vn 0 -1 2.220446049250313e-16
vn 0 -1 2.220446049250313e-16
f 1/1/1 2/2/2 3/3/3
f 4/4/4 5/5/5 6/6/6
f 7/7/7 8/8/8 9/9/9
f 10/10/10 11/11/11 12/12/12
f 13/13/13 14/14/14 15/15/15
f 16/16/16 17/17/17 18/18/18
f 19/19/19 20/20/20 21/21/21
f 22/22/22 23/23/23 24/24/24
f 25/25/25 26/26/26 27/27/27
f 28/28/28 29/29/29 30/30/30
f 31/31/31 32/32/32 33/33/33
f 34/34/34 35/35/35 36/36/36
f 37/37/37 38/38/38 39/39/39
f 40/40/40 41/41/41 42/42/42
f 43/43/43 44/44/44 45/45/45
f 46/46/46 47/47/47 48/48/48
f 49/49/49 50/50/50 51/51/51
f 52/52/52 53/53/53 54/54/54
f 55/55/55 56/56/56 57/57/57
f 58/58/58 59/59/59 60/60/60
f 61/61/61 62/62/62 63/63/63
f 64/64/64 65/65/65 66/66/66
f 67/67/67 68/68/68 69/69/69
f 70/70/70 71/71/71 72/72/72
f 73/73/73 74/74/74 75/75/75
f 76/76/76 77/77/77 78/78/78
f 79/79/79 80/80/80 81/81/81
f 82/82/82 83/83/83 84/84/84
f 85/85/85 86/86/86 87/87/87
f 88/88/88 89/89/89 90/90/90
f 91/91/91 92/92/92 93/93/93
f 94/94/94 95/95/95 96/96/96
f 97/97/97 98/98/98 99/99/99
f 100/100/100 101/101/101 102/102/102
f 103/103/103 104/104/104 105/105/105
f 106/106/106 107/107/107 108/108/108
