o Default
v 0.8574602041798471 0.17738600075244904 0.10125000029802322
v 0.5017278707590695 0.13804399967193604 -0.020213499665260315
v 0.5017278707590695 0.07795350253582001 0.13152700662612915
v 0.01501024991774852 -0.007881729863584042 0.12922300398349762
v 0.0033741463555276296 0.08993499726057053 -0.012225800193846226
v 0.01501024991774852 -0.11157400161027908 -0.027049599215388298
v 0.9920414691716986 -0.07482100278139114 -0.07929400354623795
v 0.9920414691716986 0.13003699481487274 -0.024110199883580208
v 1.0021551123253087 -0.03848550096154213 0.08191759884357452
v 0.21318457515515105 0.20451200008392334 0.000013985600162413903
v 0.0033741463555276296 0.08993499726057053 -0.012225800193846226
v 0.2247955165623517 0.1330689936876297 0.14556699991226196
v 0.0033741463555276296 0.08993499726057053 -0.012225800193846226
v 0.01501024991774852 -0.007881729863584042 0.12922300398349762
v 0.2247955165623517 0.1330689936876297 0.14556699991226196
v 0.2247955165623517 0.1330689936876297 0.14556699991226196
v 0.01501024991774852 -0.007881729863584042 0.12922300398349762
v 0.2432421410286541 0.002014450030401349 0.20250000059604645
v 0.2432421410286541 0.002014450030401349 0.20250000059604645
v 0.01501024991774852 -0.007881729863584042 0.12922300398349762
v 0.22609145327725783 -0.13697999715805054 0.13759100437164307
v 0.01501024991774852 -0.007881729863584042 0.12922300398349762
v 0.01501024991774852 -0.11157400161027908 -0.027049599215388298
v 0.22609145327725783 -0.13697999715805054 0.13759100437164307
v 0.22609145327725783 -0.13697999715805054 0.13759100437164307
v 0.01501024991774852 -0.11157400161027908 -0.027049599215388298
v 0.2181439416051444 -0.1877949982881546 -0.04735510051250458
v 0.2181439416051444 -0.1877949982881546 -0.04735510051250458
v 0.01501024991774852 -0.11157400161027908 -0.027049599215388298
v 0.23843522637479292 -0.03862990066409111 -0.1916089951992035
v 0.23843522637479292 -0.03862990066409111 -0.1916089951992035
v 0.01501024991774852 -0.11157400161027908 -0.027049599215388298
v 0.22582319984264665 0.1475829929113388 -0.1308320015668869
v 0.01501024991774852 -0.11157400161027908 -0.027049599215388298
v 0.0033741463555276296 0.08993499726057053 -0.012225800193846226
v 0.22582319984264665 0.1475829929113388 -0.1308320015668869
v 0.22582319984264665 0.1475829929113388 -0.1308320015668869
v 0.0033741463555276296 0.08993499726057053 -0.012225800193846226
v 0.21318457515515105 0.20451200008392334 0.000013985600162413903
v 0.8324727696772443 0.19008499383926392 -0.0538564994931221
v 0.8574602041798471 0.17738600075244904 0.10125000029802322
v 0.9920414691716986 0.13003699481487274 -0.024110199883580208
v 0.9920414691716986 0.13003699481487274 -0.024110199883580208
v 0.8574602041798471 0.17738600075244904 0.10125000029802322
v 1.0021551123253087 -0.03848550096154213 0.08191759884357452
v 0.8574602041798471 0.17738600075244904 0.10125000029802322
v 0.8003813772480879 0.05107859894633293 0.18934600055217743
v 1.0021551123253087 -0.03848550096154213 0.08191759884357452
v 0.8003813772480879 0.05107859894633293 0.18934600055217743
v 0.7656822939526583 -0.09924600273370743 0.17535799741744995
v 1.0021551123253087 -0.03848550096154213 0.08191759884357452
v 0.7656822939526583 -0.09924600273370743 0.17535799741744995
v 0.7892860671232358 -0.18904000520706177 0.04270099848508835
v 1.0021551123253087 -0.03848550096154213 0.08191759884357452
v 1.0021551123253087 -0.03848550096154213 0.08191759884357452
v 0.7892860671232358 -0.18904000520706177 0.04270099848508835
v 0.9920414691716986 -0.07482100278139114 -0.07929400354623795
v 0.7892860671232358 -0.18904000520706177 0.04270099848508835
v 0.8304849808634849 -0.17335399985313416 -0.10125000029802322
v 0.9920414691716986 -0.07482100278139114 -0.07929400354623795
v 0.8304849808634849 -0.17335399985313416 -0.10125000029802322
v 0.7539498069056622 0.004408529959619045 -0.19352500140666962
v 0.9920414691716986 -0.07482100278139114 -0.07929400354623795
v 0.9920414691716986 -0.07482100278139114 -0.07929400354623795
v 0.7539498069056622 0.004408529959619045 -0.19352500140666962
v 0.9920414691716986 0.13003699481487274 -0.024110199883580208
v 0.7539498069056622 0.004408529959619045 -0.19352500140666962
v 0.8324727696772443 0.19008499383926392 -0.0538564994931221
v 0.9920414691716986 0.13003699481487274 -0.024110199883580208
v 0.5017278707590695 -0.11309999972581863 -0.09234879910945892
v 0.5017278707590695 -0.09639730304479599 0.08329710364341736
v 0.2181439416051444 -0.1877949982881546 -0.04735510051250458
v 0.23843522637479292 -0.03862990066409111 -0.1916089951992035
v 0.5017278707590695 -0.11309999972581863 -0.09234879910945892
v 0.2181439416051444 -0.1877949982881546 -0.04735510051250458
v 0.23843522637479292 -0.03862990066409111 -0.1916089951992035
v 0.5017278637264186 0.02371310070157051 -0.1460610032081604
v 0.5017278707590695 -0.11309999972581863 -0.09234879910945892
v 0.22582319984264665 0.1475829929113388 -0.1308320015668869
v 0.5017278637264186 0.02371310070157051 -0.1460610032081604
v 0.23843522637479292 -0.03862990066409111 -0.1916089951992035
v 0.5017278637264186 0.02371310070157051 -0.1460610032081604
v 0.22582319984264665 0.1475829929113388 -0.1308320015668869
v 0.5017278707590695 0.13804399967193604 -0.020213499665260315
v 0.21318457515515105 0.20451200008392334 0.000013985600162413903
v 0.5017278707590695 0.13804399967193604 -0.020213499665260315
v 0.22582319984264665 0.1475829929113388 -0.1308320015668869
v 0.5017278707590695 0.07795350253582001 0.13152700662612915
v 0.5017278707590695 0.13804399967193604 -0.020213499665260315
v 0.2247955165623517 0.1330689936876297 0.14556699991226196
v 0.2432421410286541 0.002014450030401349 0.20250000059604645
v 0.5017278707590695 -0.09639730304479599 0.08329710364341736
v 0.5017278707590695 0.07795350253582001 0.13152700662612915
v 0.7656822939526583 -0.09924600273370743 0.17535799741744995
v 0.5017278707590695 -0.09639730304479599 0.08329710364341736
v 0.7892860671232358 -0.18904000520706177 0.04270099848508835
v 0.2181439416051444 -0.1877949982881546 -0.04735510051250458
v 0.5017278707590695 -0.09639730304479599 0.08329710364341736
v 0.22609145327725783 -0.13697999715805054 0.13759100437164307
v 0.5017278707590695 0.07795350253582001 0.13152700662612915
v 0.5017278707590695 -0.09639730304479599 0.08329710364341736
v 0.8003813772480879 0.05107859894633293 0.18934600055217743
v 0.7892860671232358 -0.18904000520706177 0.04270099848508835
v 0.5017278707590695 -0.09639730304479599 0.08329710364341736
v 0.5017278707590695 -0.11309999972581863 -0.09234879910945892
v 0.5017278707590695 -0.11309999972581863 -0.09234879910945892
v 0.5017278637264186 0.02371310070157051 -0.1460610032081604
v 0.7539498069056622 0.004408529959619045 -0.19352500140666962
v 0.5017278637264186 0.02371310070157051 -0.1460610032081604
v 0.5017278707590695 0.13804399967193604 -0.020213499665260315
v 0.8324727696772443 0.19008499383926392 -0.0538564994931221
v 0.8574602041798471 0.17738600075244904 0.10125000029802322
v 0.8324727696772443 0.19008499383926392 -0.0538564994931221
v 0.5017278707590695 0.13804399967193604 -0.020213499665260315
v 0.8324727696772443 0.19008499383926392 -0.0538564994931221
v 0.7539498069056622 0.004408529959619045 -0.19352500140666962
v 0.5017278637264186 0.02371310070157051 -0.1460610032081604
v 0.8003813772480879 0.05107859894633293 0.18934600055217743
v 0.8574602041798471 0.17738600075244904 0.10125000029802322
v 0.5017278707590695 0.07795350253582001 0.13152700662612915
v 0.5017278707590695 0.13804399967193604 -0.020213499665260315
v 0.21318457515515105 0.20451200008392334 0.000013985600162413903
v 0.2247955165623517 0.1330689936876297 0.14556699991226196
v 0.5017278707590695 -0.09639730304479599 0.08329710364341736
v 0.7656822939526583 -0.09924600273370743 0.17535799741744995
v 0.8003813772480879 0.05107859894633293 0.18934600055217743
v 0.8304849808634849 -0.17335399985313416 -0.10125000029802322
v 0.7892860671232358 -0.18904000520706177 0.04270099848508835
v 0.5017278707590695 -0.11309999972581863 -0.09234879910945892
v 0.7539498069056622 0.004408529959619045 -0.19352500140666962
v 0.8304849808634849 -0.17335399985313416 -0.10125000029802322
v 0.5017278707590695 -0.11309999972581863 -0.09234879910945892
v 0.5017278707590695 -0.09639730304479599 0.08329710364341736
v 0.2432421410286541 0.002014450030401349 0.20250000059604645
v 0.22609145327725783 -0.13697999715805054 0.13759100437164307
v 0.5017278707590695 0.07795350253582001 0.13152700662612915
v 0.2247955165623517 0.1330689936876297 0.14556699991226196
v 0.2432421410286541 0.002014450030401349 0.20250000059604645
vt 0.16666699945926666 0.39584600925445557
vt 0.08947549760341644 -0.33333298563957214
vt 0.33333298563957214 -0.33333298563957214
vt 0.5230410099029541 -1.4422600269317627
vt 0.75 -1.666700005531311
vt 1.0809199810028076 -1.4422600269317627
vt 1.2651100158691406 0.7955560088157654
vt 1.9060399532318115 0.7955560088157654
vt 1.75 1
vt 0.000023021599190542474 -0.9307370185852051
vt 0.16110500693321228 -1.5388400554656982
vt 0.2663179934024811 -0.906699001789093
vt 0.16110500693321228 -1.5388400554656982
vt 0.5230410099029541 -1.4422600269317627
vt 0.2663179934024811 -0.906699001789093
vt 0.2663179934024811 -0.906699001789093
vt 0.5230410099029541 -1.4422600269317627
vt 0.5000029802322388 -0.8685089945793152
vt 0.5000029802322388 -0.8685089945793152
vt 0.5230410099029541 -1.4422600269317627
vt 0.7515900135040283 -0.9040160179138184
vt 0.5230410099029541 -1.4422600269317627
vt 1.0809199810028076 -1.4422600269317627
vt 0.7515900135040283 -0.9040160179138184
vt 0.7515900135040283 -0.9040160179138184
vt 1.0809199810028076 -1.4422600269317627
vt 1.0779500007629395 -0.9204699993133545
vt 1.0779500007629395 -0.9204699993133545
vt 1.0809199810028076 -1.4422600269317627
vt 1.4330899715423584 -0.8784599900245667
vt 1.4330899715423584 -0.8784599900245667
vt 1.0809199810028076 -1.4422600269317627
vt 1.7666300535202026 -0.904570996761322
vt 1.0809199810028076 -1.4422600269317627
vt 1.7887500524520874 -1.491860032081604
vt 1.7666300535202026 -0.904570996761322
vt 1.7666300535202026 -0.904570996761322
vt 1.7887500524520874 -1.491860032081604
vt 2 -0.9307370185852051
vt 6.759079695939363e-8 0.3446280062198639
vt 0.16666699945926666 0.39584600925445557
vt 0.08670839667320251 0.7955560088157654
vt 0.08670839667320251 0.7955560088157654
vt 0.16666699945926666 0.39584600925445557
vt 0.5634859800338745 0.8348240256309509
vt 0.16666699945926666 0.39584600925445557
vt 0.41923800110816956 0.27884599566459656
vt 0.5634859800338745 0.8348240256309509
vt 0.41923800110816956 0.27884599566459656
vt 0.6666939854621887 0.20771999657154083
vt 0.5634859800338745 0.8348240256309509
vt 0.6666939854621887 0.20771999657154083
vt 0.9297099709510803 0.2561039924621582
vt 0.5634859800338745 0.8348240256309509
vt 0.5634859800338745 0.8348240256309509
vt 0.9297099709510803 0.2561039924621582
vt 1.2651100158691406 0.7955560088157654
vt 0.9297099709510803 0.2561039924621582
vt 1.1666699647903442 0.3405520021915436
vt 1.2651100158691406 0.7955560088157654
vt 1.1666699647903442 0.3405520021915436
vt 1.5039399862289429 0.1836709976196289
vt 1.2651100158691406 0.7955560088157654
vt 1.2651100158691406 0.7955560088157654
vt 1.5039399862289429 0.1836709976196289
vt 1.9060399532318115 0.7955560088157654
vt 1.5039399862289429 0.1836709976196289
vt 1.9113500118255615 0.3446280062198639
vt 1.9060399532318115 0.7955560088157654
vt 1.2158700227737427 -0.33337000012397766
vt 0.774711012840271 -0.33337000012397766
vt 1.0779500007629395 -0.9204699993133545
vt 1.4330899715423584 -0.8784599900245667
vt 1.2158700227737427 -0.33337000012397766
vt 1.0779500007629395 -0.9204699993133545
vt 1.4330899715423584 -0.8784599900245667
vt 1.5476200580596924 -0.33337000012397766
vt 1.2158700227737427 -0.33337000012397766
vt 1.7666300535202026 -0.904570996761322
vt 1.5476200580596924 -0.33337000012397766
vt 1.4330899715423584 -0.8784599900245667
vt 1.5476200580596924 -0.33337000012397766
vt 1.7666300535202026 -0.904570996761322
vt 1.912909984588623 -0.33337000012397766
vt 2 -0.9307370185852051
vt 1.912909984588623 -0.33337000012397766
vt 1.7666300535202026 -0.904570996761322
vt 0.33333298563957214 -0.33337000012397766
vt 0.08947549760341644 -0.33337000012397766
vt 0.2663179934024811 -0.906699001789093
vt 0.5000029802322388 -0.8685089945793152
vt 0.774711012840271 -0.33337000012397766
vt 0.33333298563957214 -0.33337000012397766
vt 0.6666939854621887 0.20771999657154083
vt 0.774711012840271 -0.33333298563957214
vt 0.9297099709510803 0.2561039924621582
vt 1.0779500007629395 -0.9204699993133545
vt 0.774711012840271 -0.33337000012397766
vt 0.7515900135040283 -0.9040160179138184
vt 0.33333298563957214 -0.33333298563957214
vt 0.774711012840271 -0.33333298563957214
vt 0.41923800110816956 0.27884599566459656
vt 0.9297099709510803 0.2561039924621582
vt 0.774711012840271 -0.33333298563957214
vt 1.2158700227737427 -0.33333298563957214
vt 1.2158700227737427 -0.33333298563957214
vt 1.5476200580596924 -0.33333298563957214
vt 1.5039399862289429 0.1836709976196289
vt 1.5476200580596924 -0.33333298563957214
vt 1.912909984588623 -0.33333298563957214
vt 1.9113500118255615 0.3446280062198639
vt 0.16666699945926666 0.39584600925445557
vt 6.759079695939363e-8 0.3446280062198639
vt 0.08947549760341644 -0.33333298563957214
vt 1.9113500118255615 0.3446280062198639
vt 1.5039399862289429 0.1836709976196289
vt 1.5476200580596924 -0.33333298563957214
vt 0.41923800110816956 0.27884599566459656
vt 0.16666699945926666 0.39584600925445557
vt 0.33333298563957214 -0.33333298563957214
vt 0.08947549760341644 -0.33337000012397766
vt 0.000023021599190542474 -0.9307370185852051
vt 0.2663179934024811 -0.906699001789093
vt 0.774711012840271 -0.33333298563957214
vt 0.6666939854621887 0.20771999657154083
vt 0.41923800110816956 0.27884599566459656
vt 1.1666699647903442 0.3405520021915436
vt 0.9297099709510803 0.2561039924621582
vt 1.2158700227737427 -0.33333298563957214
vt 1.5039399862289429 0.1836709976196289
vt 1.1666699647903442 0.3405520021915436
vt 1.2158700227737427 -0.33333298563957214
vt 0.774711012840271 -0.33337000012397766
vt 0.5000029802322388 -0.8685089945793152
vt 0.7515900135040283 -0.9040160179138184
vt 0.33333298563957214 -0.33337000012397766
vt 0.2663179934024811 -0.906699001789093
vt 0.5000029802322388 -0.8685089945793152
vn 0.24224059718227017 0.8107764756432462 0.5328799110684259
vn 0.05811391390486106 0.9955526087600123 -0.07414699051069071
vn 0.026207657594166003 0.4742014347596619 0.88002622572018
vn -0.713857767047844 -0.03821683968462421 0.6992471391360754
vn -0.8138063809258004 0.5768308427478731 -0.07060703378013644
vn -0.8054641510608044 -0.47328661077974893 -0.35668934020028675
vn 0.8014278219920644 -0.4446263080489642 -0.4000261145572917
vn 0.808320246991592 0.5227886524583354 -0.270758939213924
vn 0.7898791736251966 -0.18872021876934314 0.5835028449809201
vn -0.14200217338216448 0.9896722333175899 0.01960238135828716
vn -0.8138063809258004 0.5768308427478731 -0.07060703378013644
vn -0.13707887982582412 0.7476923414357026 0.6497426746521223
vn -0.8138063809258004 0.5768308427478731 -0.07060703378013644
vn -0.713857767047844 -0.03821683968462421 0.6992471391360754
vn -0.13707887982582412 0.7476923414357026 0.6497426746521223
vn -0.13707887982582412 0.7476923414357026 0.6497426746521223
vn -0.713857767047844 -0.03821683968462421 0.6992471391360754
vn 0.026300774654693465 -0.07105613698394594 0.9971255159955951
vn 0.026300774654693465 -0.07105613698394594 0.9971255159955951
vn -0.713857767047844 -0.03821683968462421 0.6992471391360754
vn -0.1458865394010867 -0.7697502954170939 0.6214512051053337
vn -0.713857767047844 -0.03821683968462421 0.6992471391360754
vn -0.8054641510608044 -0.47328661077974893 -0.35668934020028675
vn -0.1458865394010867 -0.7697502954170939 0.6214512051053337
vn -0.1458865394010867 -0.7697502954170939 0.6214512051053337
vn -0.8054641510608044 -0.47328661077974893 -0.35668934020028675
vn -0.02487284660460357 -0.9815203048451384 -0.1897346375296039
vn -0.02487284660460357 -0.9815203048451384 -0.1897346375296039
vn -0.8054641510608044 -0.47328661077974893 -0.35668934020028675
vn -0.13928692500667064 -0.2699128888648012 -0.9527571489875285
vn -0.13928692500667064 -0.2699128888648012 -0.9527571489875285
vn -0.8054641510608044 -0.47328661077974893 -0.35668934020028675
vn -0.2036216564697833 0.5811138815419201 -0.7879371026267165
vn -0.8054641510608044 -0.47328661077974893 -0.35668934020028675
vn -0.8138063809258004 0.5768308427478731 -0.07060703378013644
vn -0.2036216564697833 0.5811138815419201 -0.7879371026267165
vn -0.2036216564697833 0.5811138815419201 -0.7879371026267165
vn -0.8138063809258004 0.5768308427478731 -0.07060703378013644
vn -0.14200217338216448 0.9896722333175899 0.01960238135828716
vn 0.06224687204094989 0.8681261402331619 -0.49242495018529464
vn 0.24224059718227017 0.8107764756432462 0.5328799110684259
vn 0.808320246991592 0.5227886524583354 -0.270758939213924
vn 0.808320246991592 0.5227886524583354 -0.270758939213924
vn 0.24224059718227017 0.8107764756432462 0.5328799110684259
vn 0.7898791736251966 -0.18872021876934314 0.5835028449809201
vn 0.24224059718227017 0.8107764756432462 0.5328799110684259
vn 0.08002399959080939 0.10205083757532842 0.9915552360003268
vn 0.7898791736251966 -0.18872021876934314 0.5835028449809201
vn 0.08002399959080939 0.10205083757532842 0.9915552360003268
vn 0.08759812036878792 -0.5062823911825687 0.8579071684549068
vn 0.7898791736251966 -0.18872021876934314 0.5835028449809201
vn 0.08759812036878792 -0.5062823911825687 0.8579071684549068
vn 0.16090823020567374 -0.9602393098706057 0.22814251956025414
vn 0.7898791736251966 -0.18872021876934314 0.5835028449809201
vn 0.7898791736251966 -0.18872021876934314 0.5835028449809201
vn 0.16090823020567374 -0.9602393098706057 0.22814251956025414
vn 0.8014278219920644 -0.4446263080489642 -0.4000261145572917
vn 0.16090823020567374 -0.9602393098706057 0.22814251956025414
vn 0.1726209736301672 -0.8110860805691705 -0.5588750928158401
vn 0.8014278219920644 -0.4446263080489642 -0.4000261145572917
vn 0.1726209736301672 -0.8110860805691705 -0.5588750928158401
vn 0.14505409665108177 0.03085508130349202 -0.9889425023743763
vn 0.8014278219920644 -0.4446263080489642 -0.4000261145572917
vn 0.8014278219920644 -0.4446263080489642 -0.4000261145572917
vn 0.14505409665108177 0.03085508130349202 -0.9889425023743763
vn 0.808320246991592 0.5227886524583354 -0.270758939213924
vn 0.14505409665108177 0.03085508130349202 -0.9889425023743763
vn 0.06224687204094989 0.8681261402331619 -0.49242495018529464
vn 0.808320246991592 0.5227886524583354 -0.270758939213924
vn -0.03594871881671639 -0.8189812505218665 -0.5726931123289998
vn -0.0009817510797820992 -0.7075508022579373 0.7066617991578195
vn -0.02487284660460357 -0.9815203048451384 -0.1897346375296039
vn -0.13928692500667064 -0.2699128888648012 -0.9527571489875285
vn -0.03594871881671639 -0.8189812505218665 -0.5726931123289998
vn -0.02487284660460357 -0.9815203048451384 -0.1897346375296039
vn -0.13928692500667064 -0.2699128888648012 -0.9527571489875285
vn 0.02692950356381322 0.3245991054142997 -0.9454682557347142
vn -0.03594871881671639 -0.8189812505218665 -0.5726931123289998
vn -0.2036216564697833 0.5811138815419201 -0.7879371026267165
vn 0.02692950356381322 0.3245991054142997 -0.9454682557347142
vn -0.13928692500667064 -0.2699128888648012 -0.9527571489875285
vn 0.02692950356381322 0.3245991054142997 -0.9454682557347142
vn -0.2036216564697833 0.5811138815419201 -0.7879371026267165
vn 0.05811391390486106 0.9955526087600123 -0.07414699051069071
vn -0.14200217338216448 0.9896722333175899 0.01960238135828716
vn 0.05811391390486106 0.9955526087600123 -0.07414699051069071
vn -0.2036216564697833 0.5811138815419201 -0.7879371026267165
vn 0.026207657594166003 0.4742014347596619 0.88002622572018
vn 0.05811391390486106 0.9955526087600123 -0.07414699051069071
vn -0.13707887982582412 0.7476923414357026 0.6497426746521223
vn 0.026300774654693465 -0.07105613698394594 0.9971255159955951
vn -0.0009817510797820992 -0.7075508022579373 0.7066617991578195
vn 0.026207657594166003 0.4742014347596619 0.88002622572018
vn 0.08759812036878792 -0.5062823911825687 0.8579071684549068
vn -0.0009817510797820992 -0.7075508022579373 0.7066617991578195
vn 0.16090823020567374 -0.9602393098706057 0.22814251956025414
vn -0.02487284660460357 -0.9815203048451384 -0.1897346375296039
vn -0.0009817510797820992 -0.7075508022579373 0.7066617991578195
vn -0.1458865394010867 -0.7697502954170939 0.6214512051053337
vn 0.026207657594166003 0.4742014347596619 0.88002622572018
vn -0.0009817510797820992 -0.7075508022579373 0.7066617991578195
vn 0.08002399959080939 0.10205083757532842 0.9915552360003268
vn 0.16090823020567374 -0.9602393098706057 0.22814251956025414
vn -0.0009817510797820992 -0.7075508022579373 0.7066617991578195
vn -0.03594871881671639 -0.8189812505218665 -0.5726931123289998
vn -0.03594871881671639 -0.8189812505218665 -0.5726931123289998
vn 0.02692950356381322 0.3245991054142997 -0.9454682557347142
vn 0.14505409665108177 0.03085508130349202 -0.9889425023743763
vn 0.02692950356381322 0.3245991054142997 -0.9454682557347142
vn 0.05811391390486106 0.9955526087600123 -0.07414699051069071
vn 0.06224687204094989 0.8681261402331619 -0.49242495018529464
vn 0.24224059718227017 0.8107764756432462 0.5328799110684259
vn 0.06224687204094989 0.8681261402331619 -0.49242495018529464
vn 0.05811391390486106 0.9955526087600123 -0.07414699051069071
vn 0.06224687204094989 0.8681261402331619 -0.49242495018529464
vn 0.14505409665108177 0.03085508130349202 -0.9889425023743763
vn 0.02692950356381322 0.3245991054142997 -0.9454682557347142
vn 0.08002399959080939 0.10205083757532842 0.9915552360003268
vn 0.24224059718227017 0.8107764756432462 0.5328799110684259
vn 0.026207657594166003 0.4742014347596619 0.88002622572018
vn 0.05811391390486106 0.9955526087600123 -0.07414699051069071
vn -0.14200217338216448 0.9896722333175899 0.01960238135828716
vn -0.13707887982582412 0.7476923414357026 0.6497426746521223
vn -0.0009817510797820992 -0.7075508022579373 0.7066617991578195
vn 0.08759812036878792 -0.5062823911825687 0.8579071684549068
vn 0.08002399959080939 0.10205083757532842 0.9915552360003268
vn 0.1726209736301672 -0.8110860805691705 -0.5588750928158401
vn 0.16090823020567374 -0.9602393098706057 0.22814251956025414
vn -0.03594871881671639 -0.8189812505218665 -0.5726931123289998
vn 0.14505409665108177 0.03085508130349202 -0.9889425023743763
vn 0.1726209736301672 -0.8110860805691705 -0.5588750928158401
vn -0.03594871881671639 -0.8189812505218665 -0.5726931123289998
vn -0.0009817510797820992 -0.7075508022579373 0.7066617991578195
vn 0.026300774654693465 -0.07105613698394594 0.9971255159955951
vn -0.1458865394010867 -0.7697502954170939 0.6214512051053337
vn 0.026207657594166003 0.4742014347596619 0.88002622572018
vn -0.13707887982582412 0.7476923414357026 0.6497426746521223
vn 0.026300774654693465 -0.07105613698394594 0.9971255159955951
f 1/1/1 2/2/2 3/3/3
f 4/4/4 5/5/5 6/6/6
f 7/7/7 8/8/8 9/9/9
f 10/10/10 11/11/11 12/12/12
f 13/13/13 14/14/14 15/15/15
f 16/16/16 17/17/17 18/18/18
f 19/19/19 20/20/20 21/21/21
f 22/22/22 23/23/23 24/24/24
f 25/25/25 26/26/26 27/27/27
f 28/28/28 29/29/29 30/30/30
f 31/31/31 32/32/32 33/33/33
f 34/34/34 35/35/35 36/36/36
f 37/37/37 38/38/38 39/39/39
f 40/40/40 41/41/41 42/42/42
f 43/43/43 44/44/44 45/45/45
f 46/46/46 47/47/47 48/48/48
f 49/49/49 50/50/50 51/51/51
f 52/52/52 53/53/53 54/54/54
f 55/55/55 56/56/56 57/57/57
f 58/58/58 59/59/59 60/60/60
f 61/61/61 62/62/62 63/63/63
f 64/64/64 65/65/65 66/66/66
f 67/67/67 68/68/68 69/69/69
f 70/70/70 71/71/71 72/72/72
f 73/73/73 74/74/74 75/75/75
f 76/76/76 77/77/77 78/78/78
f 79/79/79 80/80/80 81/81/81
f 82/82/82 83/83/83 84/84/84
f 85/85/85 86/86/86 87/87/87
f 88/88/88 89/89/89 90/90/90
f 91/91/91 92/92/92 93/93/93
f 94/94/94 95/95/95 96/96/96
f 97/97/97 98/98/98 99/99/99
f 100/100/100 101/101/101 102/102/102
f 103/103/103 104/104/104 105/105/105
f 106/106/106 107/107/107 108/108/108
f 109/109/109 110/110/110 111/111/111
f 112/112/112 113/113/113 114/114/114
f 115/115/115 116/116/116 117/117/117
f 118/118/118 119/119/119 120/120/120
f 121/121/121 122/122/122 123/123/123
f 124/124/124 125/125/125 126/126/126
f 127/127/127 128/128/128 129/129/129
f 130/130/130 131/131/131 132/132/132
f 133/133/133 134/134/134 135/135/135
f 136/136/136 137/137/137 138/138/138
